<svg height="32" width="32" xmlns="http://www.w3.org/2000/svg">
    <path d="m15.998 0a3 3 0 0 0 -3 3 3 3 0 0 0 3 3 3 3 0 0 0 3-3 3 3 0 0 0 -3-3zm-3 7c-.007 0-.014.004-.021.004a1.49 1.49 0 0 0 -1.082.435l-4.477 4.477a1.5 1.5 0 0 0 0 2.121l4.525 4.524c.017.016.057.021.057.037v1.52l-2.818 5.162a1.51 1.51 0 0 0 -.149.393l-1 4.5a1.501 1.501 0 0 0 1.465 1.827c.688 0 1.308-.477 1.463-1.176l.955-4.293 1.934-3.547c.049.004.098.016.148.016h4c.05 0 .097-.012.147-.016l1.933 3.547.955 4.293a1.501 1.501 0 0 0 1.79 1.14 1.501 1.501 0 0 0 1.138-1.79l-1-4.5a1.5 1.5 0 0 0 -.145-.393l-2.816-5.164v-1.517c0-.017.04-.022.059-.04l4.523-4.523a1.5 1.5 0 0 0 0-2.121l-4.477-4.477c-.299-.299-.692-.442-1.084-.435-.008 0-.015-.004-.023-.004zm7.002 4.574 1.402 1.403-1.402 1.402zm-8 .006v2.793l-1.396-1.396z"
    />
</svg>